<svg width="140" height="140" viewBox="0 0 140 140" fill="none" xmlns="http://www.w3.org/2000/svg">
<g clip-path="url(#clip0_135_1449)">
<path fill-rule="evenodd" clip-rule="evenodd" d="M87.2984 79.5293C90.2834 81.4784 93.8493 82.276 97.9918 81.4125C110.806 78.7405 116.65 69.3348 118.256 57.7631C120.6 40.8664 113.77 19.3025 107.008 8.31811C106.688 7.7975 106.007 7.63712 105.489 7.95702C104.968 8.27671 104.805 8.95773 105.125 9.47834C111.689 20.1392 118.341 41.0621 116.067 57.4608C114.592 68.0859 109.31 76.7946 97.5395 79.2472C94.037 79.9796 91.03 79.2963 88.5019 77.6549C89.5492 75.9863 90.5355 74.31 91.4579 72.6287C94.0029 67.9869 98.2963 54.8795 97.8686 44.957C97.5599 37.8393 94.8292 32.365 87.9409 32.0036C84.1121 31.8035 81.1595 33.9647 79.1686 37.6179C76.4285 42.6387 75.5348 50.593 76.5668 58.364C77.4249 64.8342 79.609 71.166 83.0707 75.5733C83.8334 76.5404 84.6536 77.4197 85.5356 78.1892C70.5714 101.056 44.5214 121.482 18.8427 128.931C18.2583 129.103 17.9189 129.714 18.0906 130.302C18.2595 130.889 18.8736 131.225 19.4578 131.056C45.5548 123.483 72.0337 102.764 87.2984 79.5293ZM86.7462 76.2957C87.7269 74.7253 88.6522 73.1478 89.5192 71.5656C91.9565 67.1168 96.0692 54.5602 95.6589 45.0532C95.4079 39.2188 93.4702 34.507 87.8247 34.2105C84.8596 34.0566 82.6526 35.8487 81.1078 38.6754C79.4117 41.7868 78.5147 46.1115 78.3763 50.7874C78.166 57.8864 79.7132 65.7935 83.0386 71.5666C84.0911 73.3961 85.3261 75.0079 86.7462 76.2957Z" fill="#009D00"/>
<path fill-rule="evenodd" clip-rule="evenodd" d="M41.4027 94.4228C38.1564 107.205 28.5926 120.331 18.7062 129.161C18.2515 129.567 18.2128 130.267 18.6189 130.721C19.0249 131.176 19.724 131.218 20.1787 130.812C30.3751 121.706 40.1973 108.144 43.5449 94.9677C43.6951 94.378 43.3371 93.7759 42.7446 93.6254C42.1549 93.4752 41.553 93.8332 41.4027 94.4228Z" fill="#009D00"/>
<path fill-rule="evenodd" clip-rule="evenodd" d="M20.3023 131.055C30.2369 126.381 44.8754 126.786 55.2851 130.379C55.8624 130.579 56.4939 130.273 56.6907 129.696C56.8904 129.118 56.5849 128.49 56.0076 128.29C45.1022 124.527 29.7696 124.159 19.3613 129.056C18.8091 129.314 18.5719 129.975 18.8303 130.527C19.0915 131.08 19.7499 131.317 20.3023 131.055Z" fill="#009D00"/>
</g>
<defs>
<clipPath id="clip0_135_1449">
<rect width="130" height="130" fill="white" transform="translate(129.593 139.868) rotate(-175.467)"/>
</clipPath>
</defs>
</svg>
