<svg width="82" height="212" viewBox="0 0 82 212" fill="none" xmlns="http://www.w3.org/2000/svg">
<path d="M7.6318 12.0286C13.4875 4.93162 28.294 -5.98003 40.6745 7.14944C53.0551 20.2789 36.3525 44.8523 26.4536 55.4978C21.5739 58.4549 11.3962 63.482 9.72311 59.9335C7.6318 55.4978 6.37701 46.183 23.5258 38.1989C34.54 33.4675 58.3252 28.4405 65.352 46.183C68.5587 53.8714 69.1163 71.7323 45.6937 81.6681L16.4153 94.5314M16.4153 94.5314C5.26165 94.9783 -10.7717 89.6602 14.324 64.8127C22.271 60.9685 41.5111 53.1913 54.8955 52.8365C62.5636 54.4629 77.3143 62.5061 74.9721 81.6681C75.2509 85.5123 70.0366 95.0637 46.9485 102.516C41.6505 103.698 29.7997 106.153 24.7806 106.508L6.79532 109.169L16.4153 94.5314ZM16.4153 94.5314C23.734 92.4614 41.0071 88.9425 51.5494 91.4265C64.7272 94.5314 69.9529 91.87 80.4095 109.169C82.2219 118.04 80.9114 136.226 61.1694 138.001C41.4274 139.775 28.6844 136.374 24.7806 134.452V118.04M24.7806 118.04C39.1409 119.371 69.9529 118.395 78.3181 103.846C82.3613 93.4964 82.6681 72.3532 51.5494 70.579C44.0207 70.8747 27.9594 71.821 23.9441 73.2404L24.7806 104.733C39.4198 106.064 70.2039 112.363 76.2268 126.912C79.4335 135.339 80.4931 153.082 59.0781 156.63C51.1311 156.926 33.1459 155.832 24.7806 149.09M24.7806 118.04V149.09M24.7806 118.04C33.8429 120.258 53.808 126.379 61.1694 133.121C70.0923 140.514 83.17 158.848 64.0972 173.042C58.1021 175.26 42.1802 177.034 26.4536 166.389M24.7806 149.09L26.4536 166.389M24.7806 149.09C34.8189 156.187 55.3137 173.397 56.9868 185.462C57.6839 192.855 55.8157 208.261 42.7659 210.745C39.4198 211.336 31.1382 211.277 24.7806 206.309L26.4536 166.389" stroke="#84829A" stroke-width="0.833333"/>
</svg>
