<svg width="94" height="117" viewBox="0 0 94 117" fill="none" xmlns="http://www.w3.org/2000/svg">
<path d="M78.5377 106.642L46.1031 114.13L44.6447 107.808C44.3098 106.342 45.217 104.884 46.6824 104.542L73.8135 98.2756C75.2789 97.9406 76.7373 98.8478 77.0792 100.313L78.5377 106.642Z" stroke="#4D2C5E" stroke-opacity="0.1" stroke-width="3" stroke-miterlimit="10" stroke-linecap="round"/>
<path d="M67.8771 72.6433C82.1735 61.1162 84.4185 40.1822 72.8914 25.8858C61.3643 11.5895 40.4302 9.3445 26.1339 20.8716C11.8375 32.3987 9.5926 53.3327 21.1197 67.6291C32.6468 81.9254 53.5808 84.1704 67.8771 72.6433Z" stroke="#4D2C5E" stroke-opacity="0.1" stroke-width="3" stroke-miterlimit="10"/>
<path d="M62.4814 76.1755L31.4704 17.3496L27.5975 10.2109C7.38178 20.8666 -0.364023 45.8903 10.2916 66.106C20.9473 86.3218 45.971 94.0675 66.1867 83.4119L62.3976 76.2244" stroke="#4D2C5E" stroke-opacity="0.1" stroke-width="3" stroke-miterlimit="10" stroke-linecap="round" stroke-linejoin="round"/>
<path d="M38.3055 30.2396C48.458 24.8867 55.1627 17.6538 53.2808 14.0844C51.3988 10.515 41.6429 11.9607 31.4903 17.3136C21.3377 22.6665 14.6331 29.8995 16.515 33.4689C18.397 37.0383 28.1529 35.5925 38.3055 30.2396Z" stroke="#4D2C5E" stroke-opacity="0.1" stroke-width="3" stroke-miterlimit="10"/>
<path d="M40.6885 79.4063C47.8551 80.7879 55.5241 79.8459 62.4814 76.1754C69.4386 72.5049 74.5536 66.713 77.4635 60.0209C70.2969 58.6393 62.6279 59.5813 55.6707 63.2518C48.7065 66.9224 43.5984 72.7142 40.6885 79.4063Z" stroke="#4D2C5E" stroke-opacity="0.1" stroke-width="3" stroke-miterlimit="10"/>
<path d="M62.5074 76.1391C70.6281 71.8575 70.268 55.2176 61.703 38.9728C53.138 22.728 39.6116 13.0299 31.4909 17.3115C23.3702 21.5931 23.7304 38.233 32.2954 54.4778C40.8603 70.7226 54.3867 80.4207 62.5074 76.1391Z" stroke="#4D2C5E" stroke-opacity="0.1" stroke-width="3" stroke-miterlimit="10"/>
<path d="M17.5625 62.2678L76.3884 31.2568" stroke="#4D2C5E" stroke-opacity="0.1" stroke-width="3" stroke-miterlimit="10"/>
<path d="M56.6338 87.0332L60.067 101.352" stroke="#4D2C5E" stroke-opacity="0.1" stroke-width="3" stroke-miterlimit="10"/>
<path d="M42.21 115.462L83.5556 105.546" stroke="#4D2C5E" stroke-opacity="0.1" stroke-width="3" stroke-miterlimit="10" stroke-linecap="round"/>
</svg>
