<svg width="83" height="88" viewBox="0 0 83 88" fill="none" xmlns="http://www.w3.org/2000/svg">
<path d="M41.7194 62.6348C63.4132 62.6348 80.9995 54.2987 80.9995 44.0157C80.9995 33.7326 63.4132 25.3965 41.7194 25.3965C20.0257 25.3965 2.43945 33.7326 2.43945 44.0157C2.43945 54.2987 20.0257 62.6348 41.7194 62.6348Z" stroke="#4D2C5E" stroke-opacity="0.1" stroke-width="3" stroke-miterlimit="10" stroke-linecap="round" stroke-linejoin="round"/>
<path d="M57.6049 53.7212C68.8856 35.1925 70.9106 15.8373 62.1279 10.4901C53.3451 5.14292 37.0804 15.8286 25.7996 34.3572C14.5189 52.8858 12.4939 72.241 21.2767 77.5882C30.0594 82.9354 46.3241 72.2498 57.6049 53.7212Z" stroke="#4D2C5E" stroke-opacity="0.1" stroke-width="3" stroke-miterlimit="10" stroke-linecap="round" stroke-linejoin="round"/>
<path d="M62.12 77.5802C70.9028 72.233 68.8778 52.8778 57.5971 34.3492C46.3163 15.8205 30.0516 5.1349 21.2688 10.4821C12.4861 15.8293 14.5111 35.1845 25.7918 53.7131C37.0726 72.2417 53.3372 82.9274 62.12 77.5802Z" stroke="#4D2C5E" stroke-opacity="0.1" stroke-width="3" stroke-miterlimit="10" stroke-linecap="round" stroke-linejoin="round"/>
<path d="M41.7198 48.9445C44.4419 48.9445 46.6486 46.7378 46.6486 44.0157C46.6486 41.2936 44.4419 39.0869 41.7198 39.0869C38.9977 39.0869 36.791 41.2936 36.791 44.0157C36.791 46.7378 38.9977 48.9445 41.7198 48.9445Z" stroke="#4D2C5E" stroke-opacity="0.1" stroke-width="3" stroke-miterlimit="10" stroke-linecap="round" stroke-linejoin="round"/>
</svg>
