<svg width="171" height="245" viewBox="0 0 171 245" fill="none" xmlns="http://www.w3.org/2000/svg">
<path fill-rule="evenodd" clip-rule="evenodd" d="M152.012 136.746C151.083 135.896 149.485 136.061 148.415 137.101C135.609 149.194 122.6 155.955 109.776 157.298C97.2889 158.604 85.0951 154.614 73.5421 145.524C70.9709 143.545 67.0916 139.285 63.7904 134.136C67.2687 129.529 69.7637 124.227 71.1859 119.211C73.2844 111.802 72.7062 105.225 70.4605 102.152C69.2159 100.451 67.5128 99.4961 65.4544 99.2248C62.8194 98.8812 59.1326 99.7547 54.6804 103.539C48.5361 108.782 46.6007 115.626 47.7385 122.852C48.341 126.65 49.8561 130.553 51.8354 134.254C49.0251 136.525 45.6355 138.004 41.6567 137.96C33.2303 137.921 27.3913 131.853 23.4842 124.435C20.0944 118.019 16.1574 108.44 18.0403 100.358C18.6785 97.6117 20.1018 95.1693 17.9404 93.1767C14.6342 90.0902 11.0734 93.9409 10.1912 97.7134C8.30063 105.817 10.5152 115.157 12.8697 122.248C17.1878 135.299 26.3421 146.542 39.8759 146.94C46.2229 147.098 51.7888 144.959 56.4327 141.52C60.1727 146.672 64.3169 150.836 67.0923 152.861C80.8428 162.651 95.161 166.46 109.476 164.332C123.776 162.213 138.115 154.235 151.758 140.182C152.821 139.129 152.942 137.595 152.012 136.746ZM58.8033 123.919C58.0933 121.749 57.6684 119.592 57.6592 117.504C57.6523 114.848 58.3894 112.315 60.7118 110.346C61.105 110.017 61.588 109.564 61.9812 109.235C62.1856 110.138 62.5217 111.921 62.4088 113.433C62.1404 116.808 61.0189 120.901 59.1106 124.793C58.9839 124.494 58.8862 124.211 58.8033 123.919Z" fill="#4D2C5E"/>
<path fill-rule="evenodd" clip-rule="evenodd" d="M61.677 107.205C61.9126 107.312 62.1418 107.373 62.1376 107.19C62.127 106.962 61.9607 107.014 61.677 107.205Z" fill="#4D2C5E"/>
<path fill-rule="evenodd" clip-rule="evenodd" d="M146.982 140.727C145.639 143.281 144.322 145.988 143.332 148.543C141.806 152.529 141.002 156.121 141.799 158.605C142.009 159.862 143.306 160.534 144.672 160.097C146.044 159.672 146.985 158.297 146.76 157.049C146.742 156.418 147.028 155.734 147.308 154.969C147.952 153.168 149.228 151.231 150.614 149.141C152.386 146.475 154.476 143.781 156.273 141.302C157.908 139.059 159.287 136.991 160.188 135.369C161.611 132.816 161.84 130.764 161.658 129.591C161.605 129.286 159.25 124.887 154.442 127.177C152.723 128.001 148.443 130.287 148.231 130.401C145.648 131.928 140.853 134.7 136.367 136.335C134.949 136.855 133.583 137.326 132.359 137.489C132.303 137.389 132.247 137.288 132.176 137.196C131.159 135.761 128.972 135.605 127.261 136.83C126.318 137.428 125.028 138.986 124.644 139.882C123.907 141.622 124.471 142.915 126.03 143.881C128.154 145.191 131.368 145.322 135.043 144.695C138.906 144.02 143.357 142.322 146.982 140.727ZM151.657 132.532C151.97 132.001 152.092 131.621 151.731 131.573C151.327 131.518 151.548 132.16 151.657 132.532Z" fill="#4D2C5E"/>
</svg>
