<svg width="178" height="26" viewBox="0 0 178 26" fill="none" xmlns="http://www.w3.org/2000/svg">
<mask id="mask0_135_725" style="mask-type:alpha" maskUnits="userSpaceOnUse" x="56" y="2" width="13" height="22">
<path d="M64.2856 23.9793V14.1024H67.6643L68.1712 10.252H64.2856V7.79409C64.2856 6.67967 64.5998 5.9202 66.231 5.9202L68.308 5.91936V2.47546C67.9488 2.42967 66.7158 2.32471 65.2808 2.32471C62.2842 2.32471 60.2327 4.11876 60.2327 7.41275V10.252H56.8438V14.1024H60.2327V23.9793H64.2856Z" fill="white"/>
</mask>
<g mask="url(#mask0_135_725)">
<path d="M64.2856 23.9793V14.1024H67.6643L68.1712 10.252H64.2856V7.79409C64.2856 6.67967 64.5998 5.9202 66.231 5.9202L68.308 5.91936V2.47546C67.9488 2.42967 66.7158 2.32471 65.2808 2.32471C62.2842 2.32471 60.2327 4.11876 60.2327 7.41275V10.252H56.8438V14.1024H60.2327V23.9793H64.2856Z" fill="#4A3AFF"/>
</g>
<mask id="mask1_135_725" style="mask-type:alpha" maskUnits="userSpaceOnUse" x="0" y="3" width="24" height="20">
<path d="M23.008 5.88932C22.1612 6.26455 21.2525 6.51903 20.2979 6.63264C21.2727 6.04891 22.0188 5.12302 22.3725 4.02315C21.4581 4.56372 20.4488 4.95625 19.3734 5.16904C18.5122 4.25033 17.2872 3.6781 15.9286 3.6781C13.322 3.6781 11.2085 5.79157 11.2085 8.39674C11.2085 8.76622 11.2502 9.1271 11.3307 9.47218C7.40859 9.27518 3.93073 7.39608 1.60304 4.54071C1.19615 5.23659 0.964684 6.04744 0.964684 6.91299C0.964684 8.55058 1.79857 9.9955 3.06379 10.8409C2.29028 10.815 1.56278 10.6022 0.925886 10.2485V10.3075C0.925886 12.5935 2.5534 14.5013 4.71142 14.9355C4.31604 15.0419 3.89911 15.1009 3.46779 15.1009C3.163 15.1009 2.86826 15.0707 2.57927 15.0132C3.18022 16.8894 4.92278 18.2538 6.98738 18.2912C5.37279 19.5564 3.33696 20.3084 1.12574 20.3084C0.744754 20.3084 0.369482 20.2854 0 20.2437C2.08903 21.5851 4.56913 22.3672 7.23467 22.3672C15.9171 22.3672 20.6631 15.1757 20.6631 8.93878L20.6473 8.32775C21.5746 7.66635 22.3768 6.83535 23.008 5.88932Z" fill="white"/>
</mask>
<g mask="url(#mask1_135_725)">
<path d="M23.008 5.88932C22.1612 6.26455 21.2525 6.51903 20.2979 6.63264C21.2727 6.04891 22.0188 5.12302 22.3725 4.02315C21.4581 4.56372 20.4488 4.95625 19.3734 5.16904C18.5122 4.25033 17.2872 3.6781 15.9286 3.6781C13.322 3.6781 11.2085 5.79157 11.2085 8.39674C11.2085 8.76622 11.2502 9.1271 11.3307 9.47218C7.40859 9.27518 3.93073 7.39608 1.60304 4.54071C1.19615 5.23659 0.964684 6.04744 0.964684 6.91299C0.964684 8.55058 1.79857 9.9955 3.06379 10.8409C2.29028 10.815 1.56278 10.6022 0.925886 10.2485V10.3075C0.925886 12.5935 2.5534 14.5013 4.71142 14.9355C4.31604 15.0419 3.89911 15.1009 3.46779 15.1009C3.163 15.1009 2.86826 15.0707 2.57927 15.0132C3.18022 16.8894 4.92278 18.2538 6.98738 18.2912C5.37279 19.5564 3.33696 20.3084 1.12574 20.3084C0.744754 20.3084 0.369482 20.2854 0 20.2437C2.08903 21.5851 4.56913 22.3672 7.23467 22.3672C15.9171 22.3672 20.6631 15.1757 20.6631 8.93878L20.6473 8.32775C21.5746 7.66635 22.3768 6.83535 23.008 5.88932Z" fill="#FF007D"/>
</g>
<mask id="mask2_135_725" style="mask-type:alpha" maskUnits="userSpaceOnUse" x="104" y="3" width="20" height="20">
<path d="M113.685 11.2571V15.0467H119.045C118.263 17.2522 116.156 18.8362 113.685 18.8362C110.551 18.8362 108 16.2858 108 13.1519C108 10.0179 110.551 7.46754 113.685 7.46754C115.043 7.46754 116.351 7.9545 117.366 8.83936L119.856 5.98203C118.151 4.49652 115.96 3.67798 113.685 3.67798C108.461 3.67798 104.211 7.92797 104.211 13.1519C104.211 18.3758 108.461 22.6258 113.685 22.6258C118.909 22.6258 123.159 18.3758 123.159 13.1519V11.2571H113.685Z" fill="white"/>
</mask>
<g mask="url(#mask2_135_725)">
<path d="M113.685 11.2571V15.0467H119.045C118.263 17.2522 116.156 18.8362 113.685 18.8362C110.551 18.8362 108 16.2858 108 13.1519C108 10.0179 110.551 7.46754 113.685 7.46754C115.043 7.46754 116.351 7.9545 117.366 8.83936L119.856 5.98203C118.151 4.49652 115.96 3.67798 113.685 3.67798C108.461 3.67798 104.211 7.92797 104.211 13.1519C104.211 18.3758 108.461 22.6258 113.685 22.6258C118.909 22.6258 123.159 18.3758 123.159 13.1519V11.2571H113.685Z" fill="#FF6100"/>
</g>
<mask id="mask3_135_725" style="mask-type:alpha" maskUnits="userSpaceOnUse" x="152" y="0" width="26" height="26">
<path d="M170.572 0.971558H159.656C155.949 0.971558 152.934 3.98752 152.934 7.69444V18.6101C152.934 22.3172 155.949 25.333 159.656 25.333H170.572C174.279 25.333 177.295 22.317 177.295 18.6101V7.69444C177.295 3.98752 174.279 0.971558 170.572 0.971558ZM175.134 18.6101C175.134 21.1254 173.087 23.1715 170.572 23.1715H159.656C157.141 23.1717 155.095 21.1254 155.095 18.6101V7.69444C155.095 5.17936 157.141 3.13302 159.656 3.13302H170.572C173.087 3.13302 175.134 5.17936 175.134 7.69444V18.6101H175.134ZM165.114 6.7719C161.596 6.7719 158.734 9.63415 158.734 13.1524C158.734 16.6706 161.596 19.5327 165.114 19.5327C168.633 19.5327 171.495 16.6706 171.495 13.1524C171.495 9.63415 168.633 6.7719 165.114 6.7719ZM165.114 17.3355C162.808 17.3355 160.931 15.459 160.931 13.1523C160.931 10.8454 162.808 8.96876 165.114 8.96876C167.421 8.96876 169.298 10.8454 169.298 13.1523C169.298 15.459 167.421 17.3355 165.114 17.3355ZM172.075 4.45177C171.618 4.45177 171.168 4.63685 170.846 4.96114C170.521 5.28385 170.335 5.73311 170.335 6.19187C170.335 6.6492 170.521 7.0983 170.846 7.4226C171.168 7.74531 171.618 7.93197 172.075 7.93197C172.533 7.93197 172.981 7.74531 173.305 7.4226C173.63 7.0983 173.815 6.64904 173.815 6.19187C173.815 5.73311 173.63 5.28385 173.305 4.96114C172.983 4.63685 172.533 4.45177 172.075 4.45177Z" fill="white"/>
</mask>
<g mask="url(#mask3_135_725)">
<path d="M170.572 0.971558H159.656C155.949 0.971558 152.934 3.98752 152.934 7.69444V18.6101C152.934 22.3172 155.949 25.333 159.656 25.333H170.572C174.279 25.333 177.295 22.317 177.295 18.6101V7.69444C177.295 3.98752 174.279 0.971558 170.572 0.971558ZM175.134 18.6101C175.134 21.1254 173.087 23.1715 170.572 23.1715H159.656C157.141 23.1717 155.095 21.1254 155.095 18.6101V7.69444C155.095 5.17936 157.141 3.13302 159.656 3.13302H170.572C173.087 3.13302 175.134 5.17936 175.134 7.69444V18.6101H175.134ZM165.114 6.7719C161.596 6.7719 158.734 9.63415 158.734 13.1524C158.734 16.6706 161.596 19.5327 165.114 19.5327C168.633 19.5327 171.495 16.6706 171.495 13.1524C171.495 9.63415 168.633 6.7719 165.114 6.7719ZM165.114 17.3355C162.808 17.3355 160.931 15.459 160.931 13.1523C160.931 10.8454 162.808 8.96876 165.114 8.96876C167.421 8.96876 169.298 10.8454 169.298 13.1523C169.298 15.459 167.421 17.3355 165.114 17.3355ZM172.075 4.45177C171.618 4.45177 171.168 4.63685 170.846 4.96114C170.521 5.28385 170.335 5.73311 170.335 6.19187C170.335 6.6492 170.521 7.0983 170.846 7.4226C171.168 7.74531 171.618 7.93197 172.075 7.93197C172.533 7.93197 172.981 7.74531 173.305 7.4226C173.63 7.0983 173.815 6.64904 173.815 6.19187C173.815 5.73311 173.63 5.28385 173.305 4.96114C172.983 4.63685 172.533 4.45177 172.075 4.45177Z" fill="#FFC700"/>
</g>
</svg>
