<svg width="38" height="37" viewBox="0 0 38 37" fill="none" xmlns="http://www.w3.org/2000/svg">
<path d="M10.0527 27.9678C12.6834 17.9654 18.3492 10.4479 27.8883 6.36437C33.8942 3.79041 37.735 6.84798 37.2959 13.3922C37.2027 15.655 36.4939 17.8496 35.2459 19.7395C33.9978 21.6293 32.258 23.1429 30.2134 24.117C27.5555 25.3458 24.8316 26.4267 22.0544 27.3547C22.8508 27.8639 23.6059 28.4349 24.3127 29.0626C24.9796 29.7053 25.4294 30.54 25.5995 31.4504C25.7696 32.3608 25.6515 33.3016 25.2617 34.1417C24.8109 34.9212 24.1254 35.5384 23.3032 35.9054C22.4809 36.2724 21.5637 36.3704 20.6824 36.1855C18.2686 35.8312 16.0011 34.8117 14.1342 33.2412C15.1556 33.774 16.21 34.241 17.2909 34.6395C18.5972 35.0489 19.9428 35.3203 21.3057 35.4489C22.0263 35.5471 22.7584 35.3894 23.3748 35.0034C23.9911 34.6174 24.4526 34.0275 24.6789 33.3363C24.9374 32.6588 24.962 31.9143 24.7486 31.2213C24.5352 30.5283 24.0961 29.9265 23.5013 29.5118C22.7167 28.9559 21.8748 28.4858 20.99 28.1095C20.4618 27.8403 19.8993 27.64 19.3509 27.4073L19.278 26.9378C20.2117 26.5497 21.1655 26.2119 22.1354 25.926C25.9485 25.1142 29.4631 23.2648 32.2916 20.5819C33.5769 19.4007 34.5507 17.9206 35.1268 16.2728C35.7029 14.6251 35.8635 12.8606 35.594 11.1359C35.5769 10.4402 35.4029 9.75729 35.0853 9.13805C34.7677 8.51881 34.3146 7.97917 33.7596 7.55931C33.2046 7.13944 32.562 6.8502 31.8797 6.71303C31.1974 6.57586 30.493 6.59431 29.8188 6.76707C26.9354 7.25327 24.2324 8.49544 21.9856 10.3669C16.8777 14.5007 13.0073 19.9617 10.7993 26.1507C10.6132 26.6242 10.4372 27.0997 10.247 27.5671C10.1898 27.7042 10.1249 27.838 10.0527 27.9678Z" fill="#916E79"/>
<path d="M8.08887 19.2237C8.26694 15.1624 8.32154 11.089 8.68578 7.04395C8.89853 5.43089 9.42373 3.87475 10.2319 2.46261C10.649 1.56589 11.3941 0.863305 12.3138 0.499638C13.2335 0.135971 14.2578 0.138919 15.1754 0.507851C17.7825 1.39193 19.9897 3.17522 21.4018 5.53839C20.5108 4.69874 19.5724 3.91098 18.5911 3.17896C14.9204 0.728433 11.023 1.88589 9.91617 6.12524C9.23223 9.50504 8.79932 12.9308 8.62106 16.3745C8.56269 17.3799 8.5573 18.3877 8.60488 19.3937L8.08887 19.2237Z" fill="#916E79"/>
<path d="M5.78863 28.0913L7.13622 29.1637C7.11801 29.2244 7.09577 29.2851 7.07755 29.3438C6.63035 29.1415 5.99098 29.0686 5.78863 28.7368C5.66036 28.4943 5.58265 28.2282 5.56038 27.9548C5.53812 27.6814 5.57171 27.4063 5.65907 27.1462C5.75013 26.9176 6.65465 26.7678 7.01889 26.9439C7.63874 27.2877 8.18798 27.7457 8.6377 28.2936C10.7555 30.6106 12.4494 33.2819 13.642 36.1855C11.1045 33.3687 10.1878 29.0929 6.30057 27.5185L5.78863 28.0913Z" fill="#916E79"/>
<path d="M4.2014 24.5476L0.154297 22.8964C1.25511 22.1982 2.90026 22.8256 4.2014 24.5476Z" fill="#916E79"/>
</svg>
