<svg width="94" height="96" viewBox="0 0 94 96" fill="none" xmlns="http://www.w3.org/2000/svg">
<path d="M44.8409 80.2254L21.5348 72.3099C19.0721 71.4757 17.7573 68.7994 18.5916 66.3366C19.4258 63.8739 22.1022 62.5591 24.5582 63.3933L47.8642 71.3088C50.327 72.1431 51.6418 74.8194 50.8075 77.2755C49.9732 79.7449 47.3036 81.0664 44.8409 80.2254Z" stroke="#4D2C5E" stroke-opacity="0.1" stroke-width="3" stroke-miterlimit="10"/>
<path d="M41.7774 89.2491L18.4714 81.3336C16.0087 80.4993 14.6938 77.823 15.5281 75.3669C16.3624 72.9042 19.0387 71.5893 21.5014 72.4236L44.8074 80.3325C47.2702 81.1667 48.585 83.843 47.7507 86.3058C46.9098 88.7685 44.2401 90.0833 41.7774 89.2491Z" stroke="#4D2C5E" stroke-opacity="0.1" stroke-width="3" stroke-miterlimit="10"/>
<path d="M21.061 39.0531C21.0877 39.1331 21.1077 39.2066 21.1344 39.2867C21.6549 40.9485 24.725 51.4802 23.4436 63.1666L48.4448 71.4158C54.3714 61.2645 63.1078 54.6371 64.5161 53.6093C64.5828 53.5626 64.6496 53.5159 64.7096 53.4692C65.3904 52.9819 66.0511 52.4613 66.6918 51.9074C70.456 48.6571 73.4193 44.379 75.0878 39.32C80.0066 24.4234 71.9177 8.35885 57.021 3.44004C42.1244 -1.47878 26.0599 6.61024 21.141 21.5068C19.4658 26.5725 19.299 31.7716 20.3935 36.6237C20.5804 37.438 20.8007 38.2522 21.061 39.0531Z" stroke="#4D2C5E" stroke-opacity="0.1" stroke-width="3" stroke-miterlimit="10"/>
<path d="M19.7464 81.8809C19.466 86.8197 22.5094 91.5249 27.4349 93.1534C32.2937 94.7552 37.4661 92.8531 40.2159 88.8286L19.7464 81.8809Z" stroke="#4D2C5E" stroke-opacity="0.1" stroke-width="3" stroke-miterlimit="10"/>
<path d="M31.2726 65.6158L38.7009 43.104C39.4351 40.8882 38.227 38.4989 36.0112 37.7647C33.7954 37.0306 31.4061 38.2386 30.6719 40.4544C29.9378 42.6702 31.1458 45.0595 33.3616 45.7937L42.2782 48.737" stroke="#4D2C5E" stroke-opacity="0.1" stroke-width="3" stroke-miterlimit="10"/>
<path d="M41.0703 68.8533L48.4986 46.3415C49.2327 44.1257 51.6221 42.9243 53.8379 43.6518C56.0537 44.386 57.255 46.7753 56.5276 48.9911C55.7934 51.2069 53.4041 52.4083 51.1883 51.6808L42.2716 48.7375" stroke="#4D2C5E" stroke-opacity="0.1" stroke-width="3" stroke-miterlimit="10"/>
<path d="M80.3672 47.0752L87.8956 49.5646" stroke="#4D2C5E" stroke-opacity="0.1" stroke-width="3" stroke-miterlimit="10" stroke-linecap="round"/>
<path d="M83.8184 37.5914L91.6604 36.4102" stroke="#4D2C5E" stroke-opacity="0.1" stroke-width="3" stroke-miterlimit="10" stroke-linecap="round"/>
<path d="M75.1016 55.2109L80.6945 60.8305" stroke="#4D2C5E" stroke-opacity="0.1" stroke-width="3" stroke-miterlimit="10" stroke-linecap="round"/>
<path d="M10.4424 23.9964L2.91406 21.5137" stroke="#4D2C5E" stroke-opacity="0.1" stroke-width="3" stroke-miterlimit="10" stroke-linecap="round"/>
<path d="M13.3194 14.3188L7.72656 8.69922" stroke="#4D2C5E" stroke-opacity="0.1" stroke-width="3" stroke-miterlimit="10" stroke-linecap="round"/>
<path d="M9.8354 33.667L2 34.8483" stroke="#4D2C5E" stroke-opacity="0.1" stroke-width="3" stroke-miterlimit="10" stroke-linecap="round"/>
</svg>
