<svg width="107" height="94" viewBox="0 0 107 94" fill="none" xmlns="http://www.w3.org/2000/svg">
<path d="M77.9929 87.5784L8.78841 66.9056C3.75514 65.4039 0.898255 60.1066 2.40002 55.0733L16.221 8.7884C17.7227 3.75513 23.02 0.898256 28.0532 2.40002L97.2578 23.0728C102.291 24.5746 105.148 29.8718 103.646 34.9051L89.8252 81.19C88.3176 86.2174 83.0203 89.0802 77.9929 87.5784Z" stroke="#4D2C5E" stroke-opacity="0.1" stroke-width="4" stroke-miterlimit="10" stroke-linecap="round"/>
<path d="M4.03125 49.5996L91.4564 75.7163" stroke="#4D2C5E" stroke-opacity="0.1" stroke-width="4" stroke-miterlimit="10" stroke-linecap="round"/>
<path d="M47.9578 70.244C47.5823 71.4994 46.2566 72.2151 45.0012 71.8396C43.7458 71.4642 43.0301 70.1384 43.4056 68.883C43.781 67.6276 45.1068 66.912 46.3622 67.2874C47.6175 67.6628 48.3332 68.9886 47.9578 70.244Z" fill="#4D2C5E" fill-opacity="0.5"/>
<path d="M53.1983 80.1786L33.5977 74.3242L30.9567 83.1662L50.5574 89.0206L53.1983 80.1786Z" stroke="#4D2C5E" stroke-opacity="0.1" stroke-width="4" stroke-miterlimit="10" stroke-linecap="round"/>
<path d="M23.6885 81.501L57.5252 91.6086" stroke="#4D2C5E" stroke-opacity="0.1" stroke-width="4" stroke-miterlimit="10" stroke-linecap="round"/>
</svg>
