<svg width="94" height="117" viewBox="0 0 94 117" fill="none" xmlns="http://www.w3.org/2000/svg">
<path d="M78.2897 106.642L45.8551 114.13L44.3967 107.808C44.0617 106.342 44.9689 104.884 46.4343 104.542L73.5654 98.2756C75.0309 97.9406 76.4892 98.8478 76.8312 100.313L78.2897 106.642Z" stroke="#4D2C5E" stroke-opacity="0.1" stroke-width="3" stroke-miterlimit="10" stroke-linecap="round"/>
<path d="M67.6291 72.6433C81.9255 61.1162 84.1704 40.1822 72.6434 25.8858C61.1163 11.5895 40.1822 9.3445 25.8858 20.8716C11.5894 32.3987 9.34456 53.3327 20.8716 67.6291C32.3987 81.9254 53.3327 84.1704 67.6291 72.6433Z" stroke="#4D2C5E" stroke-opacity="0.1" stroke-width="3" stroke-miterlimit="10"/>
<path d="M62.2333 76.1755L31.2223 17.3496L27.3495 10.2109C7.13373 20.8666 -0.61207 45.8903 10.0436 66.106C20.6993 86.3218 45.7229 94.0675 65.9387 83.4119L62.1496 76.2244" stroke="#4D2C5E" stroke-opacity="0.1" stroke-width="3" stroke-miterlimit="10" stroke-linecap="round" stroke-linejoin="round"/>
<path d="M38.0574 30.2391C48.21 24.8863 54.9147 17.6533 53.0327 14.0839C51.1508 10.5145 41.3948 11.9602 31.2422 17.3131C21.0897 22.666 14.385 29.899 16.267 33.4684C18.1489 37.0378 27.9048 35.592 38.0574 30.2391Z" stroke="#4D2C5E" stroke-opacity="0.1" stroke-width="3" stroke-miterlimit="10"/>
<path d="M40.4404 79.4063C47.607 80.7879 55.2761 79.8459 62.2333 76.1754C69.1905 72.5049 74.3055 66.713 77.2154 60.0209C70.0488 58.6393 62.3799 59.5813 55.4226 63.2518C48.4584 66.9224 43.3503 72.7142 40.4404 79.4063Z" stroke="#4D2C5E" stroke-opacity="0.1" stroke-width="3" stroke-miterlimit="10"/>
<path d="M62.2593 76.1391C70.38 71.8575 70.0199 55.2176 61.455 38.9728C52.89 22.728 39.3635 13.0299 31.2428 17.3115C23.1222 21.5931 23.4824 38.233 32.0473 54.4778C40.6123 70.7226 54.1386 80.4207 62.2593 76.1391Z" stroke="#4D2C5E" stroke-opacity="0.1" stroke-width="3" stroke-miterlimit="10"/>
<path d="M17.3145 62.2678L76.1403 31.2568" stroke="#4D2C5E" stroke-opacity="0.1" stroke-width="3" stroke-miterlimit="10"/>
<path d="M56.3857 87.0332L59.8189 101.352" stroke="#4D2C5E" stroke-opacity="0.1" stroke-width="3" stroke-miterlimit="10"/>
<path d="M41.9619 115.462L83.3076 105.546" stroke="#4D2C5E" stroke-opacity="0.1" stroke-width="3" stroke-miterlimit="10" stroke-linecap="round"/>
</svg>
