<svg width="83" height="87" viewBox="0 0 83 87" fill="none" xmlns="http://www.w3.org/2000/svg">
<path d="M41.28 61.835C62.9737 61.835 80.56 53.4989 80.56 43.2159C80.56 32.9328 62.9737 24.5967 41.28 24.5967C19.5862 24.5967 2 32.9328 2 43.2159C2 53.4989 19.5862 61.835 41.28 61.835Z" stroke="#4D2C5E" stroke-opacity="0.1" stroke-width="3" stroke-miterlimit="10" stroke-linecap="round" stroke-linejoin="round"/>
<path d="M57.1654 52.9214C68.4462 34.3927 70.4712 15.0375 61.6884 9.69032C52.9056 4.34312 36.6409 15.0288 25.3602 33.5574C14.0794 52.086 12.0544 71.4412 20.8372 76.7884C29.62 82.1356 45.8847 71.45 57.1654 52.9214Z" stroke="#4D2C5E" stroke-opacity="0.1" stroke-width="3" stroke-miterlimit="10" stroke-linecap="round" stroke-linejoin="round"/>
<path d="M61.6806 76.7799C70.4634 71.4327 68.4384 52.0775 57.1576 33.5489C45.8769 15.0202 29.6122 4.3346 20.8294 9.68181C12.0466 15.029 14.0716 34.3842 25.3524 52.9128C36.6331 71.4414 52.8978 82.1271 61.6806 76.7799Z" stroke="#4D2C5E" stroke-opacity="0.1" stroke-width="3" stroke-miterlimit="10" stroke-linecap="round" stroke-linejoin="round"/>
<path d="M41.2803 48.1447C44.0024 48.1447 46.2091 45.938 46.2091 43.2159C46.2091 40.4938 44.0024 38.2871 41.2803 38.2871C38.5583 38.2871 36.3516 40.4938 36.3516 43.2159C36.3516 45.938 38.5583 48.1447 41.2803 48.1447Z" stroke="#4D2C5E" stroke-opacity="0.1" stroke-width="3" stroke-miterlimit="10" stroke-linecap="round" stroke-linejoin="round"/>
</svg>
