<svg width="79" height="78" viewBox="0 0 79 78" fill="none" xmlns="http://www.w3.org/2000/svg">
<path d="M10.6872 21.6883C10.6872 24.361 8.51635 26.5319 5.84363 26.5319C3.1709 26.5319 1 24.361 1 21.6883C1 19.0156 3.1709 16.8447 5.84363 16.8447C8.51635 16.8447 10.6872 19.01 10.6872 21.6883Z" stroke="#4D2C5E" stroke-opacity="0.1" stroke-width="2" stroke-miterlimit="10" stroke-linecap="round" stroke-linejoin="round"/>
<path d="M57.6796 63.6965C60.3546 63.6965 62.5232 61.528 62.5232 58.8529C62.5232 56.1779 60.3546 54.0093 57.6796 54.0093C55.0045 54.0093 52.8359 56.1779 52.8359 58.8529C52.8359 61.528 55.0045 63.6965 57.6796 63.6965Z" stroke="#4D2C5E" stroke-opacity="0.1" stroke-width="2" stroke-miterlimit="10" stroke-linecap="round" stroke-linejoin="round"/>
<path d="M39.4443 48.8949C45.1494 48.8949 49.7743 44.27 49.7743 38.5649C49.7743 32.8598 45.1494 28.2349 39.4443 28.2349C33.7391 28.2349 29.1143 32.8598 29.1143 38.5649C29.1143 44.27 33.7391 48.8949 39.4443 48.8949Z" stroke="#4D2C5E" stroke-opacity="0.1" stroke-width="2" stroke-miterlimit="10" stroke-linecap="round" stroke-linejoin="round"/>
<path d="M57.4433 38.5648L53.9981 44.5869L52.1712 51.2913L45.4724 53.1125L39.4447 56.5634L33.4169 53.1125L26.7126 51.2913L24.8913 44.5869L21.4404 38.5648L24.8913 32.5371L26.7126 25.8327L33.4169 24.0114L39.4447 20.5605L45.4724 24.0114L52.1712 25.8327L53.9981 32.5371L57.4433 38.5648Z" stroke="#4D2C5E" stroke-opacity="0.1" stroke-width="2" stroke-miterlimit="10" stroke-linecap="round" stroke-linejoin="round"/>
<path d="M52.8363 58.8525C52.8363 56.1798 55.0072 54.0089 57.6799 54.0089C59.1234 54.0089 60.4203 54.646 61.3056 55.6497C64.9933 50.9358 67.198 45.0096 67.198 38.5589C67.198 23.2274 54.7704 10.7998 39.4389 10.7998C24.1073 10.7998 11.6797 23.2274 11.6797 38.5589C11.6797 53.8905 24.1073 66.3181 39.4389 66.3181C44.8294 66.3181 49.8534 64.7787 54.1106 62.1229C53.3269 61.2602 52.8363 60.1156 52.8363 58.8525Z" stroke="#4D2C5E" stroke-opacity="0.1" stroke-width="2" stroke-miterlimit="10" stroke-linecap="round" stroke-linejoin="round"/>
<path d="M39.4449 1C26.4929 1 15.069 7.55777 8.31948 17.5326C9.73478 18.3784 10.6877 19.9234 10.6877 21.6939C10.6877 24.3666 8.51682 26.5375 5.8441 26.5375C5.18437 26.5375 4.55849 26.4022 3.98899 26.1654C2.63007 30.0504 1.88574 34.2174 1.88574 38.5648C1.88574 59.3094 18.7059 76.1296 39.4505 76.1296C60.1952 76.1296 77.0153 59.3094 77.0153 38.5648C77.0153 17.8201 60.1895 1 39.4449 1Z" stroke="#4D2C5E" stroke-opacity="0.1" stroke-width="2" stroke-miterlimit="10" stroke-linecap="round" stroke-linejoin="round"/>
</svg>
