<svg width="94" height="95" viewBox="0 0 94 95" fill="none" xmlns="http://www.w3.org/2000/svg">
<path fill-rule="evenodd" clip-rule="evenodd" d="M47.0275 94.9194C34.0316 94.9194 22.3023 89.633 13.7668 81.1526C5.28647 72.6722 0 60.8878 0 47.947C0 34.9511 5.28647 23.2217 13.7668 14.6863C22.3023 6.2059 34.0316 0.919434 47.0275 0.919434C59.9684 0.919434 71.7528 6.2059 80.2332 14.6863C88.7135 23.2217 94 34.9511 94 47.947C94 60.8878 88.7135 72.6722 80.2332 81.1526C71.7528 89.633 59.9684 94.9194 47.0275 94.9194Z" fill="#FC817C"/>
<path fill-rule="evenodd" clip-rule="evenodd" d="M47.0281 92.7168C34.6379 92.7168 23.4593 87.7057 15.3643 79.6108C7.26945 71.4608 2.25832 60.2821 2.25832 47.947C2.25832 35.5569 7.26945 24.3782 15.3643 16.2833C23.4593 8.18839 34.6379 3.17726 47.0281 3.17726C59.3632 3.17726 70.5418 8.18839 78.6918 16.2833C86.7867 24.3782 91.7979 35.5569 91.7979 47.947C91.7979 60.2821 86.7867 71.4608 78.6918 79.6108C70.5418 87.7057 59.3632 92.7168 47.0281 92.7168Z" fill="#FC817C"/>
<path d="M56.1692 54.4449C49.7264 54.3898 43.2284 54.3347 36.9507 54.4999C38.4375 56.2621 40.5301 58.2445 42.6227 60.1719C44.495 61.934 46.4223 63.6962 47.799 65.2931C50.0017 67.8262 50.277 70.6347 49.3959 72.8924C49.0655 73.7735 48.5149 74.5445 47.799 75.2053C47.0831 75.811 46.2571 76.3066 45.321 76.5819C43.0632 77.1877 40.3098 76.5819 37.8318 73.9387C31.4991 67.1104 26.4879 62.3195 22.7433 58.7952C18.0075 54.3347 15.3643 51.8016 14.6484 49.3787C13.6022 45.9645 16.1353 43.5415 21.8623 37.9797C23.1288 36.7132 24.5606 35.3365 26.2126 33.6845C27.4241 32.473 28.6356 31.3166 29.792 30.1602C32.6555 27.4068 35.4088 24.6534 38.1071 21.7348C40.42 19.2017 43.0632 18.6511 45.2659 19.367C46.147 19.6423 46.973 20.1379 47.6338 20.7987C48.3497 21.4044 48.8453 22.2304 49.2307 23.1115C50.1669 25.4244 49.8916 28.3429 47.4686 30.9862C46.2571 32.3078 44.6602 33.7946 43.0081 35.3916C40.8605 37.429 38.5477 39.5767 37.0058 41.3388H56.4996C56.5547 41.3388 56.5547 41.3388 56.6098 41.3388H73.0749C74.8371 41.3388 76.4891 42.1098 77.7006 43.2662C78.857 44.4777 79.6279 46.1297 79.6279 47.8918C79.6279 49.7091 78.857 51.3611 77.7006 52.5175C76.4891 53.729 74.8371 54.4449 73.0749 54.4449H56.6098H56.1692Z" fill="white"/>
</svg>
