<svg width="94" height="95" viewBox="0 0 94 95" fill="none" xmlns="http://www.w3.org/2000/svg">
<path fill-rule="evenodd" clip-rule="evenodd" d="M46.9725 0.919434C59.9684 0.919434 71.6977 6.2059 80.2332 14.6863C88.7135 23.1667 94 34.9511 94 47.8919C94 60.8878 88.7135 72.6171 80.2332 81.1526C71.6977 89.633 59.9684 94.9194 46.9725 94.9194C34.0316 94.9194 22.2472 89.633 13.7668 81.1526C5.28647 72.6171 0 60.8878 0 47.8919C0 34.9511 5.28647 23.1667 13.7668 14.6863C22.2472 6.2059 34.0316 0.919434 46.9725 0.919434Z" fill="#FC817C"/>
<path fill-rule="evenodd" clip-rule="evenodd" d="M46.9719 3.12207C59.3621 3.12207 70.5407 8.1332 78.6357 16.2281C86.7306 24.3781 91.7417 35.5567 91.7417 47.8918C91.7417 60.282 86.7306 71.4607 78.6357 79.5556C70.5407 87.6505 59.3621 92.6616 46.9719 92.6616C34.6368 92.6616 23.4582 87.6505 15.3082 79.5556C7.21328 71.4607 2.20215 60.282 2.20215 47.8918C2.20215 35.5567 7.21328 24.3781 15.3082 16.2281C23.4582 8.1332 34.6368 3.12207 46.9719 3.12207Z" fill="#FC817C"/>
<path d="M37.8308 41.394C44.2736 41.4491 50.7716 41.5041 57.0493 41.3389C55.5625 39.5768 53.4699 37.5944 51.3773 35.667C49.505 33.9048 47.5777 32.1427 46.201 30.5457C43.9983 28.0126 43.723 25.2042 44.6041 22.9464C44.9345 22.0654 45.4851 21.2944 46.201 20.6336C46.9169 20.0279 47.7429 19.5323 48.679 19.2569C50.9368 18.6512 53.6902 19.2569 56.1682 21.9002C62.5009 28.7285 67.5121 33.5194 71.2567 37.0437C75.9925 41.5041 78.6357 44.0372 79.3516 46.4602C80.3978 49.8744 77.8647 52.2973 72.1377 57.8591C70.8712 59.1257 69.4394 60.5024 67.7874 62.1544C66.5759 63.3659 65.3644 64.5223 64.208 65.6787C61.3445 68.4321 58.5912 71.1855 55.8929 74.104C53.58 76.6371 50.9368 77.1878 48.7341 76.4719C47.853 76.1966 47.027 75.701 46.3662 75.0402C45.6503 74.4344 45.1547 73.6084 44.7693 72.7273C43.8331 70.4145 44.1084 67.4959 46.5314 64.8527C47.7429 63.5311 49.3398 62.0443 50.9919 60.4473C53.1395 58.4098 55.4523 56.2622 56.9942 54.5H37.5004C37.4453 54.5 37.4453 54.5 37.3902 54.5H20.9251C19.1629 54.5 17.5109 53.7291 16.2994 52.5727C15.143 51.3612 14.3721 49.7092 14.3721 47.947C14.3721 46.1298 15.143 44.4778 16.2994 43.3214C17.5109 42.1099 19.1629 41.394 20.9251 41.394H37.3902H37.8308Z" fill="white"/>
</svg>
