<svg width="179" height="255" viewBox="0 0 179 255" fill="none" xmlns="http://www.w3.org/2000/svg">
<path fill-rule="evenodd" clip-rule="evenodd" d="M26.9663 110.997C27.8958 111.847 29.4933 111.682 30.564 110.642C43.3695 98.5492 56.3788 91.7881 69.2028 90.4453C81.6896 89.1394 93.8834 93.1296 105.436 102.219C108.008 104.198 111.887 108.458 115.188 113.607C111.71 118.214 109.215 123.516 107.793 128.533C105.694 135.941 106.272 142.518 108.518 145.591C109.763 147.293 111.466 148.247 113.524 148.518C116.159 148.862 119.846 147.989 124.298 144.204C130.442 138.961 132.378 132.117 131.24 124.891C130.638 121.093 129.122 117.19 127.143 113.489C129.953 111.218 133.343 109.739 137.322 109.783C145.748 109.822 151.587 115.89 155.494 123.308C158.884 129.724 162.821 139.303 160.938 147.385C160.3 150.131 158.877 152.574 161.038 154.566C164.344 157.653 167.905 153.802 168.787 150.03C170.678 141.926 168.463 132.586 166.109 125.495C161.791 112.444 152.636 101.201 139.103 100.803C132.756 100.645 127.19 102.784 122.546 106.223C118.806 101.071 114.662 96.9067 111.886 94.8819C98.1357 85.0922 83.8175 81.2835 69.5028 83.4113C55.2028 85.5299 40.8638 93.5084 27.221 107.561C26.1574 108.614 26.0368 110.148 26.9663 110.997ZM120.175 123.824C120.885 125.994 121.31 128.151 121.319 130.239C121.326 132.895 120.589 135.428 118.267 137.397C117.873 137.726 117.39 138.179 116.997 138.509C116.793 137.605 116.457 135.822 116.57 134.31C116.838 130.935 117.96 126.842 119.868 122.95C119.995 123.249 120.092 123.532 120.175 123.824Z" fill="#4D2C5E"/>
<path fill-rule="evenodd" clip-rule="evenodd" d="M145.359 141.78C145.124 141.673 144.894 141.612 144.899 141.794C144.909 142.023 145.075 141.971 145.359 141.78Z" fill="#4D2C5E"/>
<path fill-rule="evenodd" clip-rule="evenodd" d="M23.0539 111.152C24.3974 108.598 25.7145 105.891 26.7038 103.336C28.2301 99.35 29.0344 95.7588 28.2376 93.274C28.0273 92.0169 26.7305 91.3458 25.3646 91.7827C23.9916 92.2071 23.0509 93.5825 23.2758 94.8305C23.2942 95.4618 23.0081 96.1457 22.728 96.9105C22.0836 98.7118 20.8083 100.649 19.4221 102.739C17.6504 105.405 15.5602 108.098 13.7628 110.577C12.1283 112.82 10.7496 114.889 9.84809 116.511C8.42519 119.063 8.19583 121.116 8.3786 122.288C8.43131 122.594 10.786 126.992 15.5939 124.702C17.3131 123.878 21.5933 121.592 21.8048 121.478C24.3885 119.952 29.1827 117.179 33.6688 115.544C35.0867 115.025 36.4532 114.553 37.6772 114.39C37.7334 114.491 37.7895 114.591 37.8602 114.683C38.8769 116.119 41.064 116.274 42.7755 115.049C43.7177 114.451 45.0084 112.893 45.3919 111.997C46.1292 110.257 45.5654 108.964 44.0061 107.999C41.8816 106.688 38.6679 106.557 34.9936 107.184C31.1305 107.86 26.6794 109.558 23.0539 111.152ZM18.3788 119.347C18.0664 119.878 17.9444 120.258 18.305 120.306C18.7087 120.362 18.4882 119.72 18.3788 119.347Z" fill="#4D2C5E"/>
</svg>
