<svg width="70" height="70" viewBox="0 0 70 70" fill="none" xmlns="http://www.w3.org/2000/svg">
<path fill-rule="evenodd" clip-rule="evenodd" d="M27.7274 13.7945C27.5399 12.682 27.3986 11.5822 27.3074 10.4822C27.1699 8.83217 27.2549 7.16955 27.2061 5.51955C27.1849 4.81955 27.1011 2.99458 27.1349 2.73208C27.4411 0.444578 29.2874 0.0945352 29.8274 0.0320352C30.0886 -0.00546475 32.7711 -0.305331 33.3499 2.66967C34.0599 6.30717 34.2874 9.96962 34.0361 13.5571C34.6224 16.6071 35.6249 19.6446 36.9487 22.3946C42.2161 33.3321 52.2536 34.3946 63.1286 34.2946C64.8011 34.2696 66.1899 35.5821 66.2774 37.2446C66.3649 38.9196 65.1199 40.3696 63.4549 40.5196C57.3762 41.1071 46.5911 45.9821 42.8623 51.0571C42.0823 52.1196 41.6286 54.6822 41.0286 57.1947C40.1911 60.6822 39.1949 64.1321 38.0786 65.5821C37.9111 65.8071 35.8749 68.1072 35.2674 68.4447C33.8074 69.2447 32.6386 68.7821 31.9749 68.3571C31.3111 67.9321 30.5599 67.0946 30.2599 65.7071C29.9461 64.2571 30.2111 61.282 30.1624 60.6445C29.9849 58.332 29.5224 53.7946 28.5787 49.8946C28.0699 47.7946 27.5274 45.8571 26.6299 44.8946C23.3074 41.3321 17.9949 41.8571 13.5211 42.4446C13.0074 42.5071 12.4937 42.5821 11.9811 42.6446C10.1599 43.1821 8.2261 43.5821 6.18235 43.8196C3.0961 44.1821 2.58864 41.3446 2.56114 41.1571C2.50364 40.7446 2.28986 38.6196 4.61611 37.7696C4.86986 37.6821 6.74238 37.2696 7.46363 37.1071C8.46863 36.8821 9.48486 36.7071 10.5049 36.5446C21.0411 33.2696 26.7636 24.0695 27.7274 13.7945ZM31.3436 25.1572C35.3211 33.3822 41.3574 37.3571 48.5124 39.1571H48.5112C44.0436 41.4946 39.9799 44.4197 37.8261 47.3572C37.0086 48.4697 36.2586 50.7071 35.5824 53.2196C35.2161 50.8821 34.7212 48.3945 34.0674 46.2695C33.3237 43.8445 32.3224 41.8322 31.2049 40.6322C29.0474 38.3197 26.3398 37.0321 23.4286 36.3946C26.9136 33.3071 29.5561 29.4572 31.3436 25.1572Z" fill="#5956E9"/>
</svg>
