<svg width="38" height="49" viewBox="0 0 38 49" fill="none" xmlns="http://www.w3.org/2000/svg">
<path d="M7.55747 23.388C15.4856 16.0294 22.2371 9.78384 28.9721 3.51005C31.043 1.57567 33.2833 -1.09765 36.0319 1.74273C39.0205 4.81845 35.5612 6.73869 33.721 8.56718C30.3831 11.9448 26.8753 15.1501 23.2113 18.1708C20.5804 20.2888 20.3874 21.882 22.576 24.4776C27.1507 29.9231 31.4195 35.625 35.846 41.1857C37.5804 43.3695 39.0299 45.944 36.4202 47.9725C33.8104 50.001 31.6478 48.0219 29.9323 45.791C26.3835 41.1763 22.936 36.4675 19.1237 32.081C17.62 30.349 16.5022 26.5555 13.4594 28.0804C10.5555 29.5347 7.51039 31.7939 7.57629 35.9192C7.61158 38.5078 7.57629 41.0963 7.57629 43.6849C7.57629 46.3417 6.87027 48.5279 3.65572 48.4102C0.855334 48.3091 0.16351 46.2923 0.161157 43.9108C0.153312 30.9648 0.153312 18.0218 0.161157 5.08203C0.161157 2.67699 0.937707 0.714373 3.73809 0.669661C6.9597 0.620243 7.57155 2.86288 7.57155 5.48441L7.55747 23.388Z" fill="#916E79"/>
</svg>
