<svg width="38" height="38" viewBox="0 0 38 38" fill="none" xmlns="http://www.w3.org/2000/svg">
<path d="M19.2716 0.66748C9.08853 0.66748 0.833496 8.92251 0.833496 19.1056C0.833496 29.2887 9.08853 37.5437 19.2716 37.5437C29.4547 37.5437 37.7098 29.2887 37.7098 19.1056C37.6979 8.92743 29.4498 0.679334 19.2716 0.66748Z" fill="black" fill-opacity="0.15"/>
<path d="M29.9151 13.2663L19.3977 27.539C19.1468 27.8718 18.7728 28.0898 18.3596 28.1441C17.9464 28.1985 17.5288 28.0845 17.2004 27.8278L9.68998 21.8231C9.02723 21.2928 8.91991 20.3256 9.45028 19.6628C9.98065 19.0001 10.9479 18.8927 11.6106 19.4231L17.8734 24.4337L27.4413 11.4486C27.755 10.9778 28.3021 10.7175 28.8654 10.7711C29.4286 10.8246 29.9168 11.1834 30.1362 11.7049C30.3556 12.2264 30.2706 12.8262 29.9151 13.2663Z" fill="#17494A"/>
</svg>
